<svg height="512pt" viewBox="0 0 512 512" width="512pt" xmlns="http://www.w3.org/2000/svg"><g fill="#b0d3f0"><path d="m26.484375 114.757812c-4.878906 0-8.828125-3.953124-8.828125-8.828124v-17.652344c0-4.875 3.949219-8.828125 8.828125-8.828125 4.875 0 8.824219 3.953125 8.824219 8.828125v17.652344c0 4.875-3.949219 8.828124-8.824219 8.828124zm0 0"/><path d="m26.484375 167.722656c-4.878906 0-8.828125-3.949218-8.828125-8.824218v-17.65625c0-4.875 3.949219-8.828126 8.828125-8.828126 4.875 0 8.824219 3.953126 8.824219 8.828126v17.65625c0 4.875-3.949219 8.824218-8.824219 8.824218zm0 0"/><path d="m26.484375 220.691406c-4.878906 0-8.828125-3.953125-8.828125-8.828125v-17.65625c0-4.875 3.949219-8.828125 8.828125-8.828125 4.875 0 8.824219 3.953125 8.824219 8.828125v17.65625c0 4.875-3.949219 8.828125-8.824219 8.828125zm0 0"/><path d="m26.484375 273.65625c-4.878906 0-8.828125-3.953125-8.828125-8.828125v-17.65625c0-4.875 3.949219-8.828125 8.828125-8.828125 4.875 0 8.824219 3.953125 8.824219 8.828125v17.65625c0 4.875-3.949219 8.828125-8.824219 8.828125zm0 0"/><path d="m26.484375 326.621094c-4.878906 0-8.828125-3.953125-8.828125-8.828125v-17.65625c0-4.875 3.949219-8.828125 8.828125-8.828125 4.875 0 8.824219 3.953125 8.824219 8.828125v17.65625c0 4.875-3.949219 8.828125-8.824219 8.828125zm0 0"/><path d="m26.484375 379.585938c-4.878906 0-8.828125-3.953126-8.828125-8.828126v-17.65625c0-4.875 3.949219-8.824218 8.828125-8.824218 4.875 0 8.824219 3.949218 8.824219 8.824218v17.65625c0 4.875-3.949219 8.828126-8.824219 8.828126zm0 0"/><path d="m26.484375 432.550781c-4.878906 0-8.828125-3.953125-8.828125-8.828125v-17.652344c0-4.875 3.949219-8.828124 8.828125-8.828124 4.875 0 8.824219 3.953124 8.824219 8.828124v17.652344c0 4.875-3.949219 8.828125-8.824219 8.828125zm0 0"/><path d="m105.929688 35.308594h-17.652344c-4.875 0-8.828125-3.949219-8.828125-8.824219 0-4.878906 3.953125-8.828125 8.828125-8.828125h17.652344c4.875 0 8.828124 3.949219 8.828124 8.828125 0 4.875-3.953124 8.824219-8.828124 8.824219zm0 0"/><path d="m158.898438 35.308594h-17.65625c-4.875 0-8.828126-3.949219-8.828126-8.824219 0-4.878906 3.953126-8.828125 8.828126-8.828125h17.65625c4.875 0 8.824218 3.949219 8.824218 8.828125 0 4.875-3.949218 8.824219-8.824218 8.824219zm0 0"/><path d="m211.863281 35.308594h-17.65625c-4.875 0-8.828125-3.949219-8.828125-8.824219 0-4.878906 3.953125-8.828125 8.828125-8.828125h17.65625c4.875 0 8.828125 3.949219 8.828125 8.828125 0 4.875-3.953125 8.824219-8.828125 8.824219zm0 0"/><path d="m264.828125 35.308594h-17.65625c-4.875 0-8.828125-3.949219-8.828125-8.824219 0-4.878906 3.953125-8.828125 8.828125-8.828125h17.65625c4.875 0 8.828125 3.949219 8.828125 8.828125 0 4.875-3.953125 8.824219-8.828125 8.824219zm0 0"/><path d="m317.792969 35.308594h-17.65625c-4.875 0-8.828125-3.949219-8.828125-8.824219 0-4.878906 3.953125-8.828125 8.828125-8.828125h17.65625c4.875 0 8.828125 3.949219 8.828125 8.828125 0 4.875-3.953125 8.824219-8.828125 8.824219zm0 0"/><path d="m370.757812 35.308594h-17.65625c-4.875 0-8.824218-3.949219-8.824218-8.824219 0-4.878906 3.949218-8.828125 8.824218-8.828125h17.65625c4.875 0 8.828126 3.949219 8.828126 8.828125 0 4.875-3.953126 8.824219-8.828126 8.824219zm0 0"/><path d="m423.722656 35.308594h-17.652344c-4.875 0-8.828124-3.949219-8.828124-8.824219 0-4.878906 3.953124-8.828125 8.828124-8.828125h17.652344c4.875 0 8.828125 3.949219 8.828125 8.828125 0 4.875-3.953125 8.824219-8.828125 8.824219zm0 0"/><path d="m105.929688 494.34375h-17.652344c-4.875 0-8.828125-3.949219-8.828125-8.828125 0-4.875 3.953125-8.824219 8.828125-8.824219h17.652344c4.875 0 8.828124 3.949219 8.828124 8.824219 0 4.878906-3.953124 8.828125-8.828124 8.828125zm0 0"/><path d="m158.898438 494.34375h-17.65625c-4.875 0-8.828126-3.949219-8.828126-8.828125 0-4.875 3.953126-8.824219 8.828126-8.824219h17.65625c4.875 0 8.824218 3.949219 8.824218 8.824219 0 4.878906-3.949218 8.828125-8.824218 8.828125zm0 0"/><path d="m211.863281 494.34375h-17.65625c-4.875 0-8.828125-3.949219-8.828125-8.828125 0-4.875 3.953125-8.824219 8.828125-8.824219h17.65625c4.875 0 8.828125 3.949219 8.828125 8.824219 0 4.878906-3.953125 8.828125-8.828125 8.828125zm0 0"/><path d="m264.828125 494.34375h-17.65625c-4.875 0-8.828125-3.949219-8.828125-8.828125 0-4.875 3.953125-8.824219 8.828125-8.824219h17.65625c4.875 0 8.828125 3.949219 8.828125 8.824219 0 4.878906-3.953125 8.828125-8.828125 8.828125zm0 0"/><path d="m317.792969 494.34375h-17.65625c-4.875 0-8.828125-3.949219-8.828125-8.828125 0-4.875 3.953125-8.824219 8.828125-8.824219h17.65625c4.875 0 8.828125 3.949219 8.828125 8.824219 0 4.878906-3.953125 8.828125-8.828125 8.828125zm0 0"/><path d="m370.757812 494.34375h-17.65625c-4.875 0-8.824218-3.949219-8.824218-8.828125 0-4.875 3.949218-8.824219 8.824218-8.824219h17.65625c4.875 0 8.828126 3.949219 8.828126 8.824219 0 4.878906-3.953126 8.828125-8.828126 8.828125zm0 0"/><path d="m423.722656 494.34375h-17.652344c-4.875 0-8.828124-3.949219-8.828124-8.828125 0-4.875 3.953124-8.824219 8.828124-8.824219h17.652344c4.875 0 8.828125 3.949219 8.828125 8.824219 0 4.878906-3.953125 8.828125-8.828125 8.828125zm0 0"/><path d="m485.515625 114.757812c-4.875 0-8.824219-3.953124-8.824219-8.828124v-17.652344c0-4.875 3.949219-8.828125 8.824219-8.828125 4.878906 0 8.828125 3.953125 8.828125 8.828125v17.652344c0 4.875-3.949219 8.828124-8.828125 8.828124zm0 0"/><path d="m485.515625 167.722656c-4.875 0-8.824219-3.949218-8.824219-8.824218v-17.65625c0-4.875 3.949219-8.828126 8.824219-8.828126 4.878906 0 8.828125 3.953126 8.828125 8.828126v17.65625c0 4.875-3.949219 8.824218-8.828125 8.824218zm0 0"/><path d="m485.515625 220.691406c-4.875 0-8.824219-3.953125-8.824219-8.828125v-17.65625c0-4.875 3.949219-8.828125 8.824219-8.828125 4.878906 0 8.828125 3.953125 8.828125 8.828125v17.65625c0 4.875-3.949219 8.828125-8.828125 8.828125zm0 0"/><path d="m485.515625 273.65625c-4.875 0-8.824219-3.953125-8.824219-8.828125v-17.65625c0-4.875 3.949219-8.828125 8.824219-8.828125 4.878906 0 8.828125 3.953125 8.828125 8.828125v17.65625c0 4.875-3.949219 8.828125-8.828125 8.828125zm0 0"/><path d="m485.515625 326.621094c-4.875 0-8.824219-3.953125-8.824219-8.828125v-17.65625c0-4.875 3.949219-8.828125 8.824219-8.828125 4.878906 0 8.828125 3.953125 8.828125 8.828125v17.65625c0 4.875-3.949219 8.828125-8.828125 8.828125zm0 0"/><path d="m485.515625 379.585938c-4.875 0-8.824219-3.953126-8.824219-8.828126v-17.65625c0-4.875 3.949219-8.824218 8.824219-8.824218 4.878906 0 8.828125 3.949218 8.828125 8.824218v17.65625c0 4.875-3.949219 8.828126-8.828125 8.828126zm0 0"/><path d="m485.515625 432.550781c-4.875 0-8.824219-3.953125-8.824219-8.828125v-17.652344c0-4.875 3.949219-8.828124 8.824219-8.828124 4.878906 0 8.828125 3.953124 8.828125 8.828124v17.652344c0 4.875-3.949219 8.828125-8.828125 8.828125zm0 0"/></g><path d="m141.242188 123.585938h229.515624c9.75 0 17.65625 7.90625 17.65625 17.65625v229.515624c0 9.75-7.90625 17.65625-17.65625 17.65625h-229.515624c-9.75 0-17.65625-7.90625-17.65625-17.65625v-229.515624c0-9.75 7.90625-17.65625 17.65625-17.65625zm0 0" fill="#b49aca"/><path d="m461.59375 470.421875c-2.335938.007813-4.582031-.914063-6.242188-2.558594l-411.214843-411.214843c-3.453125-3.457032-3.453125-9.054688 0-12.511719 3.457031-3.453125 9.054687-3.453125 12.511719 0l411.214843 411.214843c2.523438 2.527344 3.277344 6.324219 1.910157 9.621094-1.363282 3.296875-4.582032 5.449219-8.152344 5.449219zm0 0" fill="#802d40"/><path d="m50.40625 470.421875c-3.574219.011719-6.804688-2.136719-8.175781-5.4375-1.375-3.300781-.621094-7.101563 1.90625-9.632813l411.214843-411.214843c3.457032-3.453125 9.054688-3.453125 12.511719 0 3.453125 3.457031 3.453125 9.054687 0 12.511719l-411.214843 411.214843c-1.660157 1.644531-3.90625 2.566407-6.242188 2.558594zm0 0" fill="#802d40"/><path d="m8.828125 0h35.308594c4.875 0 8.828125 3.953125 8.828125 8.828125v35.308594c0 4.875-3.953125 8.828125-8.828125 8.828125h-35.308594c-4.875 0-8.828125-3.953125-8.828125-8.828125v-35.308594c0-4.875 3.953125-8.828125 8.828125-8.828125zm0 0" fill="#ff5364"/><path d="m467.863281 0h35.308594c4.875 0 8.828125 3.953125 8.828125 8.828125v35.308594c0 4.875-3.953125 8.828125-8.828125 8.828125h-35.308594c-4.875 0-8.828125-3.953125-8.828125-8.828125v-35.308594c0-4.875 3.953125-8.828125 8.828125-8.828125zm0 0" fill="#ff5364"/><path d="m8.828125 459.035156h35.308594c4.875 0 8.828125 3.953125 8.828125 8.828125v35.308594c0 4.875-3.953125 8.828125-8.828125 8.828125h-35.308594c-4.875 0-8.828125-3.953125-8.828125-8.828125v-35.308594c0-4.875 3.953125-8.828125 8.828125-8.828125zm0 0" fill="#ff5364"/><path d="m467.863281 459.035156h35.308594c4.875 0 8.828125 3.953125 8.828125 8.828125v35.308594c0 4.875-3.953125 8.828125-8.828125 8.828125h-35.308594c-4.875 0-8.828125-3.953125-8.828125-8.828125v-35.308594c0-4.875 3.953125-8.828125 8.828125-8.828125zm0 0" fill="#ff5364"/></svg>