<svg height="512" viewBox="0 0 58 58" width="512" xmlns="http://www.w3.org/2000/svg"><g id="Page-1" fill="none" fill-rule="evenodd"><g id="005---Share-Images" fill-rule="nonzero" transform="translate(-1 -1)"><path id="Shape" d="m10.42 40.21c-2.75437159-.1831011-5.02839961-2.2218849-5.51-4.94l-3.82-21.67c-.57076975-3.2632011 1.60798188-6.37250783 4.87-6.95l31.51-5.56c1.567457-.27604772 3.1803705.08199373 4.4838022.99533362s2.1905724 2.30713503 2.4661978 3.87466638l.71 4.04z" fill="#bdc3c7"/><path id="Shape" d="m31.04 44h-15.04c-1.5917871.0015942-3.118837-.6300349-4.2444011-1.7555989-1.125564-1.1255641-1.75719308-2.652614-1.7555989-4.2444011v-22c0-3.3137085 2.6862915-6 6-6h32c3.3137085 0 6 2.6862915 6 6v18.29z" fill="#ecf0f1"/><path id="Shape" d="m50 28.59v3.33c-7.221067-2.7566494-15.3098749.8602608-18.07 8.08h-15.93c-1.1032019-.0032948-1.9967052-.8967981-2-2v-1.37l9.31-9.32c.3930079-.3899779 1.0269921-.3899779 1.42 0l3.56 3.57c.3930079.3899779 1.0269921.3899779 1.42 0l10.58-10.59c.3930079-.3899779 1.0269921-.3899779 1.42 0z" fill="#d25627"/><path id="Shape" d="m50 16v12.59l-8.29-8.3c-.3930079-.3899779-1.0269921-.3899779-1.42 0l-10.58 10.59c-.3930079.3899779-1.0269921.3899779-1.42 0l-3.56-3.57c-.3930079-.3899779-1.0269921-.3899779-1.42 0l-9.31 9.32v-20.63c.0032948-1.1032019.8967981-1.9967052 2-2h32c1.1032019.0032948 1.9967052.8967981 2 2z" fill="#f9c795"/><circle id="Oval" cx="21" cy="21" fill="#f5efca" r="3"/><path id="Shape" d="m59 45c0 7.7319865-6.2680135 14-14 14s-14-6.2680135-14-14c0-.34.01-.67.04-1 .3159476-4.4192432 2.7050917-8.4281151 6.4416543-10.8087943 3.7365626-2.3806791 8.3794898-2.8521564 12.5183457-1.2712057v.01c5.4119927 2.0790582 8.9881364 7.2724137 9 13.07z" fill="#24ae5f"/><path id="Rectangle-path" d="m42.5 42.875h2v10.252h-2z" fill="#ecf0f1" transform="matrix(.479 -.878 .878 .479 -19.47 63.204)"/><path id="Rectangle-path" d="m38.374 41h10.252v2h-10.252z" fill="#ecf0f1" transform="matrix(.878 -.479 .479 .878 -14.802 25.965)"/><g fill="#fff"><circle id="Oval" cx="38" cy="45" r="3"/><circle id="Oval" cx="49" cy="39" r="3"/><circle id="Oval" cx="49" cy="51" r="3"/></g></g></g></svg>